<mxfile host="app.diagrams.net" modified="2023-04-15T23:46:12.845Z" agent="Mozilla/5.0 (Windows NT 10.0; Win64; x64) AppleWebKit/537.36 (KHTML, like Gecko) Chrome/112.0.0.0 Safari/537.36" etag="Jq4wYiJlhpckhNrzcDAt" version="21.1.8" type="device">
  <diagram name="Página-1" id="GfS5PUBoxYJQztUa7kK-">
    <mxGraphModel dx="2062" dy="1815" grid="1" gridSize="10" guides="1" tooltips="1" connect="1" arrows="1" fold="1" page="1" pageScale="1" pageWidth="827" pageHeight="1169" math="0" shadow="0">
      <root>
        <mxCell id="0" />
        <mxCell id="1" parent="0" />
        <mxCell id="ZhaH2Ic472sz3L4v5rn1-83" value="" style="rounded=0;whiteSpace=wrap;html=1;glass=0;shadow=0;" vertex="1" parent="1">
          <mxGeometry x="275" y="405" width="130" height="70" as="geometry" />
        </mxCell>
        <mxCell id="ZhaH2Ic472sz3L4v5rn1-1" value="MIEMBRO" style="rounded=0;whiteSpace=wrap;html=1;" vertex="1" parent="1">
          <mxGeometry x="40" y="40" width="120" height="60" as="geometry" />
        </mxCell>
        <mxCell id="ZhaH2Ic472sz3L4v5rn1-2" value="EMPLEADOR" style="rounded=0;whiteSpace=wrap;html=1;" vertex="1" parent="1">
          <mxGeometry x="354" y="40" width="120" height="60" as="geometry" />
        </mxCell>
        <mxCell id="ZhaH2Ic472sz3L4v5rn1-3" value="" style="endArrow=none;html=1;rounded=0;exitX=1;exitY=0.5;exitDx=0;exitDy=0;" edge="1" parent="1" source="ZhaH2Ic472sz3L4v5rn1-1" target="ZhaH2Ic472sz3L4v5rn1-4">
          <mxGeometry width="50" height="50" relative="1" as="geometry">
            <mxPoint x="200" y="80" as="sourcePoint" />
            <mxPoint x="250" y="30" as="targetPoint" />
          </mxGeometry>
        </mxCell>
        <mxCell id="ZhaH2Ic472sz3L4v5rn1-4" value="" style="rhombus;whiteSpace=wrap;html=1;" vertex="1" parent="1">
          <mxGeometry x="230" y="45" width="50" height="50" as="geometry" />
        </mxCell>
        <mxCell id="ZhaH2Ic472sz3L4v5rn1-5" value="" style="endArrow=none;html=1;rounded=0;exitX=1;exitY=0.5;exitDx=0;exitDy=0;" edge="1" parent="1" source="ZhaH2Ic472sz3L4v5rn1-4" target="ZhaH2Ic472sz3L4v5rn1-2">
          <mxGeometry width="50" height="50" relative="1" as="geometry">
            <mxPoint x="390" y="210" as="sourcePoint" />
            <mxPoint x="440" y="160" as="targetPoint" />
          </mxGeometry>
        </mxCell>
        <mxCell id="ZhaH2Ic472sz3L4v5rn1-6" value="Es contratado" style="text;html=1;align=center;verticalAlign=middle;resizable=0;points=[];autosize=1;strokeColor=none;fillColor=none;" vertex="1" parent="1">
          <mxGeometry x="205" y="15" width="100" height="30" as="geometry" />
        </mxCell>
        <mxCell id="ZhaH2Ic472sz3L4v5rn1-7" value="EVENTO" style="rounded=0;whiteSpace=wrap;html=1;" vertex="1" parent="1">
          <mxGeometry x="40" y="280" width="120" height="60" as="geometry" />
        </mxCell>
        <mxCell id="ZhaH2Ic472sz3L4v5rn1-8" value="1" style="text;html=1;align=center;verticalAlign=middle;resizable=0;points=[];autosize=1;strokeColor=none;fillColor=none;" vertex="1" parent="1">
          <mxGeometry x="155" y="48" width="30" height="30" as="geometry" />
        </mxCell>
        <mxCell id="ZhaH2Ic472sz3L4v5rn1-9" value="N" style="text;html=1;align=center;verticalAlign=middle;resizable=0;points=[];autosize=1;strokeColor=none;fillColor=none;" vertex="1" parent="1">
          <mxGeometry x="325" y="48" width="30" height="30" as="geometry" />
        </mxCell>
        <mxCell id="ZhaH2Ic472sz3L4v5rn1-10" value="CUOTA" style="whiteSpace=wrap;html=1;" vertex="1" parent="1">
          <mxGeometry x="365" y="210" width="120" height="60" as="geometry" />
        </mxCell>
        <mxCell id="ZhaH2Ic472sz3L4v5rn1-12" value="TOPICO" style="whiteSpace=wrap;html=1;" vertex="1" parent="1">
          <mxGeometry x="40" y="660" width="120" height="60" as="geometry" />
        </mxCell>
        <mxCell id="ZhaH2Ic472sz3L4v5rn1-13" value="COMPAÑIA" style="whiteSpace=wrap;html=1;" vertex="1" parent="1">
          <mxGeometry x="600" y="40" width="120" height="60" as="geometry" />
        </mxCell>
        <mxCell id="ZhaH2Ic472sz3L4v5rn1-14" value="AREA DE APLICACION" style="whiteSpace=wrap;html=1;" vertex="1" parent="1">
          <mxGeometry x="-120" y="405" width="120" height="60" as="geometry" />
        </mxCell>
        <mxCell id="ZhaH2Ic472sz3L4v5rn1-15" value="" style="endArrow=none;html=1;rounded=0;exitX=0.5;exitY=1;exitDx=0;exitDy=0;" edge="1" parent="1" source="ZhaH2Ic472sz3L4v5rn1-4" target="ZhaH2Ic472sz3L4v5rn1-16">
          <mxGeometry width="50" height="50" relative="1" as="geometry">
            <mxPoint x="390" y="200" as="sourcePoint" />
            <mxPoint x="270" y="120" as="targetPoint" />
          </mxGeometry>
        </mxCell>
        <mxCell id="ZhaH2Ic472sz3L4v5rn1-16" value="Trabaja" style="ellipse;whiteSpace=wrap;html=1;" vertex="1" parent="1">
          <mxGeometry x="270" y="100" width="50" height="30" as="geometry" />
        </mxCell>
        <mxCell id="ZhaH2Ic472sz3L4v5rn1-17" value="" style="endArrow=none;html=1;rounded=0;entryX=1;entryY=0.5;entryDx=0;entryDy=0;exitX=0;exitY=0.5;exitDx=0;exitDy=0;" edge="1" parent="1" source="ZhaH2Ic472sz3L4v5rn1-18" target="ZhaH2Ic472sz3L4v5rn1-2">
          <mxGeometry width="50" height="50" relative="1" as="geometry">
            <mxPoint x="390" y="200" as="sourcePoint" />
            <mxPoint x="440" y="150" as="targetPoint" />
          </mxGeometry>
        </mxCell>
        <mxCell id="ZhaH2Ic472sz3L4v5rn1-18" value="" style="rhombus;whiteSpace=wrap;html=1;" vertex="1" parent="1">
          <mxGeometry x="510" y="45" width="50" height="50" as="geometry" />
        </mxCell>
        <mxCell id="ZhaH2Ic472sz3L4v5rn1-19" value="" style="endArrow=none;html=1;rounded=0;exitX=0;exitY=0.5;exitDx=0;exitDy=0;" edge="1" parent="1" source="ZhaH2Ic472sz3L4v5rn1-13">
          <mxGeometry width="50" height="50" relative="1" as="geometry">
            <mxPoint x="520" y="80" as="sourcePoint" />
            <mxPoint x="560" y="70" as="targetPoint" />
          </mxGeometry>
        </mxCell>
        <mxCell id="ZhaH2Ic472sz3L4v5rn1-21" value="Trabaja" style="text;html=1;align=center;verticalAlign=middle;resizable=0;points=[];autosize=1;strokeColor=none;fillColor=none;" vertex="1" parent="1">
          <mxGeometry x="505" y="15" width="60" height="30" as="geometry" />
        </mxCell>
        <mxCell id="ZhaH2Ic472sz3L4v5rn1-22" value="" style="rhombus;whiteSpace=wrap;html=1;" vertex="1" parent="1">
          <mxGeometry x="270" y="160" width="50" height="50" as="geometry" />
        </mxCell>
        <mxCell id="ZhaH2Ic472sz3L4v5rn1-24" value="" style="endArrow=none;html=1;rounded=0;exitX=0.75;exitY=1;exitDx=0;exitDy=0;entryX=0.5;entryY=0;entryDx=0;entryDy=0;" edge="1" parent="1" source="ZhaH2Ic472sz3L4v5rn1-1" target="ZhaH2Ic472sz3L4v5rn1-22">
          <mxGeometry width="50" height="50" relative="1" as="geometry">
            <mxPoint x="360" y="300" as="sourcePoint" />
            <mxPoint x="410" y="250" as="targetPoint" />
          </mxGeometry>
        </mxCell>
        <mxCell id="ZhaH2Ic472sz3L4v5rn1-25" value="" style="endArrow=none;html=1;rounded=0;exitX=0.5;exitY=1;exitDx=0;exitDy=0;entryX=0.5;entryY=0;entryDx=0;entryDy=0;" edge="1" parent="1" source="ZhaH2Ic472sz3L4v5rn1-22" target="ZhaH2Ic472sz3L4v5rn1-10">
          <mxGeometry width="50" height="50" relative="1" as="geometry">
            <mxPoint x="360" y="300" as="sourcePoint" />
            <mxPoint x="410" y="250" as="targetPoint" />
          </mxGeometry>
        </mxCell>
        <mxCell id="ZhaH2Ic472sz3L4v5rn1-26" value="N" style="text;html=1;align=center;verticalAlign=middle;resizable=0;points=[];autosize=1;strokeColor=none;fillColor=none;" vertex="1" parent="1">
          <mxGeometry x="155" y="90" width="30" height="30" as="geometry" />
        </mxCell>
        <mxCell id="ZhaH2Ic472sz3L4v5rn1-27" value="N" style="text;html=1;align=center;verticalAlign=middle;resizable=0;points=[];autosize=1;strokeColor=none;fillColor=none;" vertex="1" parent="1">
          <mxGeometry x="335" y="210" width="30" height="30" as="geometry" />
        </mxCell>
        <mxCell id="ZhaH2Ic472sz3L4v5rn1-28" value="paga" style="text;html=1;align=center;verticalAlign=middle;resizable=0;points=[];autosize=1;strokeColor=none;fillColor=none;" vertex="1" parent="1">
          <mxGeometry x="230" y="180" width="50" height="30" as="geometry" />
        </mxCell>
        <mxCell id="ZhaH2Ic472sz3L4v5rn1-29" value="Fecha de pago" style="ellipse;whiteSpace=wrap;html=1;" vertex="1" parent="1">
          <mxGeometry x="362.5" y="150" width="60" height="40" as="geometry" />
        </mxCell>
        <mxCell id="ZhaH2Ic472sz3L4v5rn1-30" value="" style="endArrow=none;html=1;rounded=0;exitX=1;exitY=0.5;exitDx=0;exitDy=0;entryX=0;entryY=0.5;entryDx=0;entryDy=0;" edge="1" parent="1" source="ZhaH2Ic472sz3L4v5rn1-22" target="ZhaH2Ic472sz3L4v5rn1-29">
          <mxGeometry width="50" height="50" relative="1" as="geometry">
            <mxPoint x="360" y="200" as="sourcePoint" />
            <mxPoint x="410" y="150" as="targetPoint" />
          </mxGeometry>
        </mxCell>
        <mxCell id="ZhaH2Ic472sz3L4v5rn1-31" value="Fecha de vencimiento" style="ellipse;whiteSpace=wrap;html=1;" vertex="1" parent="1">
          <mxGeometry x="341.5" y="110" width="85" height="40" as="geometry" />
        </mxCell>
        <mxCell id="ZhaH2Ic472sz3L4v5rn1-32" value="" style="endArrow=none;html=1;rounded=0;exitX=1;exitY=0.5;exitDx=0;exitDy=0;entryX=0.049;entryY=0.74;entryDx=0;entryDy=0;entryPerimeter=0;" edge="1" parent="1" source="ZhaH2Ic472sz3L4v5rn1-22" target="ZhaH2Ic472sz3L4v5rn1-31">
          <mxGeometry width="50" height="50" relative="1" as="geometry">
            <mxPoint x="360" y="200" as="sourcePoint" />
            <mxPoint x="410" y="150" as="targetPoint" />
          </mxGeometry>
        </mxCell>
        <mxCell id="ZhaH2Ic472sz3L4v5rn1-36" value="" style="rhombus;whiteSpace=wrap;html=1;" vertex="1" parent="1">
          <mxGeometry x="-80" y="160" width="50" height="50" as="geometry" />
        </mxCell>
        <mxCell id="ZhaH2Ic472sz3L4v5rn1-38" value="" style="endArrow=none;html=1;rounded=0;exitX=0.5;exitY=0;exitDx=0;exitDy=0;entryX=0;entryY=0.5;entryDx=0;entryDy=0;" edge="1" parent="1" source="ZhaH2Ic472sz3L4v5rn1-36" target="ZhaH2Ic472sz3L4v5rn1-1">
          <mxGeometry width="50" height="50" relative="1" as="geometry">
            <mxPoint x="360" y="200" as="sourcePoint" />
            <mxPoint x="410" y="150" as="targetPoint" />
            <Array as="points">
              <mxPoint x="-60" y="70" />
            </Array>
          </mxGeometry>
        </mxCell>
        <mxCell id="ZhaH2Ic472sz3L4v5rn1-39" value="" style="endArrow=none;html=1;rounded=0;exitX=0.5;exitY=1;exitDx=0;exitDy=0;entryX=0.005;entryY=0.63;entryDx=0;entryDy=0;entryPerimeter=0;" edge="1" parent="1" source="ZhaH2Ic472sz3L4v5rn1-36" target="ZhaH2Ic472sz3L4v5rn1-7">
          <mxGeometry width="50" height="50" relative="1" as="geometry">
            <mxPoint x="360" y="200" as="sourcePoint" />
            <mxPoint x="410" y="150" as="targetPoint" />
            <Array as="points">
              <mxPoint x="-55" y="320" />
            </Array>
          </mxGeometry>
        </mxCell>
        <mxCell id="ZhaH2Ic472sz3L4v5rn1-40" value="Organiza" style="text;html=1;align=center;verticalAlign=middle;resizable=0;points=[];autosize=1;strokeColor=none;fillColor=none;" vertex="1" parent="1">
          <mxGeometry x="-30" y="170" width="70" height="30" as="geometry" />
        </mxCell>
        <mxCell id="ZhaH2Ic472sz3L4v5rn1-42" value="" style="endArrow=none;html=1;rounded=0;exitX=0.5;exitY=1;exitDx=0;exitDy=0;entryX=0.5;entryY=0;entryDx=0;entryDy=0;" edge="1" parent="1" source="ZhaH2Ic472sz3L4v5rn1-43" target="ZhaH2Ic472sz3L4v5rn1-7">
          <mxGeometry width="50" height="50" relative="1" as="geometry">
            <mxPoint x="360" y="200" as="sourcePoint" />
            <mxPoint x="410" y="150" as="targetPoint" />
          </mxGeometry>
        </mxCell>
        <mxCell id="ZhaH2Ic472sz3L4v5rn1-43" value="" style="rhombus;whiteSpace=wrap;html=1;" vertex="1" parent="1">
          <mxGeometry x="75" y="160" width="50" height="50" as="geometry" />
        </mxCell>
        <mxCell id="ZhaH2Ic472sz3L4v5rn1-44" value="" style="endArrow=none;html=1;rounded=0;exitX=0.5;exitY=1;exitDx=0;exitDy=0;entryX=0.5;entryY=0;entryDx=0;entryDy=0;" edge="1" parent="1" source="ZhaH2Ic472sz3L4v5rn1-1" target="ZhaH2Ic472sz3L4v5rn1-43">
          <mxGeometry width="50" height="50" relative="1" as="geometry">
            <mxPoint x="360" y="200" as="sourcePoint" />
            <mxPoint x="410" y="150" as="targetPoint" />
          </mxGeometry>
        </mxCell>
        <mxCell id="ZhaH2Ic472sz3L4v5rn1-45" value="Asiste" style="text;html=1;align=center;verticalAlign=middle;resizable=0;points=[];autosize=1;strokeColor=none;fillColor=none;" vertex="1" parent="1">
          <mxGeometry x="115" y="170" width="60" height="30" as="geometry" />
        </mxCell>
        <mxCell id="ZhaH2Ic472sz3L4v5rn1-46" value="" style="endArrow=none;html=1;rounded=0;exitX=0.5;exitY=1;exitDx=0;exitDy=0;" edge="1" parent="1" source="ZhaH2Ic472sz3L4v5rn1-7" target="ZhaH2Ic472sz3L4v5rn1-47">
          <mxGeometry width="50" height="50" relative="1" as="geometry">
            <mxPoint x="360" y="400" as="sourcePoint" />
            <mxPoint x="100" y="400" as="targetPoint" />
          </mxGeometry>
        </mxCell>
        <mxCell id="ZhaH2Ic472sz3L4v5rn1-47" value="" style="rhombus;whiteSpace=wrap;html=1;" vertex="1" parent="1">
          <mxGeometry x="70" y="380" width="60" height="50" as="geometry" />
        </mxCell>
        <mxCell id="ZhaH2Ic472sz3L4v5rn1-48" value="" style="endArrow=none;html=1;rounded=0;exitX=0.5;exitY=1;exitDx=0;exitDy=0;" edge="1" parent="1" source="ZhaH2Ic472sz3L4v5rn1-47">
          <mxGeometry width="50" height="50" relative="1" as="geometry">
            <mxPoint x="360" y="400" as="sourcePoint" />
            <mxPoint x="100" y="480" as="targetPoint" />
          </mxGeometry>
        </mxCell>
        <mxCell id="ZhaH2Ic472sz3L4v5rn1-49" value="ORADOR" style="rounded=0;whiteSpace=wrap;html=1;" vertex="1" parent="1">
          <mxGeometry x="40" y="470" width="120" height="60" as="geometry" />
        </mxCell>
        <mxCell id="ZhaH2Ic472sz3L4v5rn1-50" value="" style="rhombus;whiteSpace=wrap;html=1;" vertex="1" parent="1">
          <mxGeometry x="70" y="570" width="60" height="50" as="geometry" />
        </mxCell>
        <mxCell id="ZhaH2Ic472sz3L4v5rn1-51" value="" style="endArrow=none;html=1;rounded=0;exitX=0.5;exitY=0;exitDx=0;exitDy=0;entryX=0.5;entryY=1;entryDx=0;entryDy=0;" edge="1" parent="1" source="ZhaH2Ic472sz3L4v5rn1-50" target="ZhaH2Ic472sz3L4v5rn1-49">
          <mxGeometry width="50" height="50" relative="1" as="geometry">
            <mxPoint x="360" y="500" as="sourcePoint" />
            <mxPoint x="410" y="450" as="targetPoint" />
          </mxGeometry>
        </mxCell>
        <mxCell id="ZhaH2Ic472sz3L4v5rn1-52" value="" style="endArrow=none;html=1;rounded=0;exitX=0.5;exitY=0;exitDx=0;exitDy=0;entryX=0.5;entryY=1;entryDx=0;entryDy=0;" edge="1" parent="1" source="ZhaH2Ic472sz3L4v5rn1-12" target="ZhaH2Ic472sz3L4v5rn1-50">
          <mxGeometry width="50" height="50" relative="1" as="geometry">
            <mxPoint x="110" y="580" as="sourcePoint" />
            <mxPoint x="110" y="550" as="targetPoint" />
          </mxGeometry>
        </mxCell>
        <mxCell id="ZhaH2Ic472sz3L4v5rn1-53" value="N" style="text;html=1;align=center;verticalAlign=middle;resizable=0;points=[];autosize=1;strokeColor=none;fillColor=none;" vertex="1" parent="1">
          <mxGeometry x="95" y="530" width="30" height="30" as="geometry" />
        </mxCell>
        <mxCell id="ZhaH2Ic472sz3L4v5rn1-54" value="N" style="text;html=1;align=center;verticalAlign=middle;resizable=0;points=[];autosize=1;strokeColor=none;fillColor=none;" vertex="1" parent="1">
          <mxGeometry x="100" y="625" width="30" height="30" as="geometry" />
        </mxCell>
        <mxCell id="ZhaH2Ic472sz3L4v5rn1-55" value="COMENTARIO" style="whiteSpace=wrap;html=1;" vertex="1" parent="1">
          <mxGeometry x="280" y="410" width="120" height="60" as="geometry" />
        </mxCell>
        <mxCell id="ZhaH2Ic472sz3L4v5rn1-56" value="Participa en" style="text;html=1;align=center;verticalAlign=middle;resizable=0;points=[];autosize=1;strokeColor=none;fillColor=none;" vertex="1" parent="1">
          <mxGeometry x="125" y="390" width="90" height="30" as="geometry" />
        </mxCell>
        <mxCell id="ZhaH2Ic472sz3L4v5rn1-57" value="N" style="text;html=1;align=center;verticalAlign=middle;resizable=0;points=[];autosize=1;strokeColor=none;fillColor=none;" vertex="1" parent="1">
          <mxGeometry x="75" y="338" width="30" height="30" as="geometry" />
        </mxCell>
        <mxCell id="ZhaH2Ic472sz3L4v5rn1-58" value="N" style="text;html=1;align=center;verticalAlign=middle;resizable=0;points=[];autosize=1;strokeColor=none;fillColor=none;" vertex="1" parent="1">
          <mxGeometry x="100" y="450" width="30" height="30" as="geometry" />
        </mxCell>
        <mxCell id="ZhaH2Ic472sz3L4v5rn1-59" value="N" style="text;html=1;align=center;verticalAlign=middle;resizable=0;points=[];autosize=1;strokeColor=none;fillColor=none;" vertex="1" parent="1">
          <mxGeometry x="570" y="45" width="30" height="30" as="geometry" />
        </mxCell>
        <mxCell id="ZhaH2Ic472sz3L4v5rn1-60" value="1" style="text;html=1;align=center;verticalAlign=middle;resizable=0;points=[];autosize=1;strokeColor=none;fillColor=none;" vertex="1" parent="1">
          <mxGeometry x="470" y="45" width="30" height="30" as="geometry" />
        </mxCell>
        <mxCell id="ZhaH2Ic472sz3L4v5rn1-64" value="Nombre" style="ellipse;whiteSpace=wrap;html=1;" vertex="1" parent="1">
          <mxGeometry x="100" y="-47.5" width="70" height="45" as="geometry" />
        </mxCell>
        <mxCell id="ZhaH2Ic472sz3L4v5rn1-67" value="Direccion" style="ellipse;whiteSpace=wrap;html=1;dashed=1;" vertex="1" parent="1">
          <mxGeometry x="25" y="-45" width="70" height="40" as="geometry" />
        </mxCell>
        <mxCell id="ZhaH2Ic472sz3L4v5rn1-68" value="Profesion" style="ellipse;whiteSpace=wrap;html=1;" vertex="1" parent="1">
          <mxGeometry x="-50" y="-45" width="70" height="40" as="geometry" />
        </mxCell>
        <mxCell id="ZhaH2Ic472sz3L4v5rn1-69" value="ESTABLECIMIENTO" style="whiteSpace=wrap;html=1;" vertex="1" parent="1">
          <mxGeometry x="367.5" y="280" width="117.5" height="60" as="geometry" />
        </mxCell>
        <mxCell id="ZhaH2Ic472sz3L4v5rn1-70" value="Telefono laboral" style="ellipse;whiteSpace=wrap;html=1;" vertex="1" parent="1">
          <mxGeometry x="-60" y="3" width="60" height="45" as="geometry" />
        </mxCell>
        <mxCell id="ZhaH2Ic472sz3L4v5rn1-71" value="Costo de realizacion" style="ellipse;whiteSpace=wrap;html=1;dashed=1;" vertex="1" parent="1">
          <mxGeometry x="160" y="225" width="60" height="50" as="geometry" />
        </mxCell>
        <mxCell id="ZhaH2Ic472sz3L4v5rn1-73" value="" style="endArrow=none;html=1;rounded=0;exitX=0.652;exitY=-0.013;exitDx=0;exitDy=0;exitPerimeter=0;entryX=0;entryY=0.5;entryDx=0;entryDy=0;" edge="1" parent="1" source="ZhaH2Ic472sz3L4v5rn1-7" target="ZhaH2Ic472sz3L4v5rn1-71">
          <mxGeometry width="50" height="50" relative="1" as="geometry">
            <mxPoint x="350" y="300" as="sourcePoint" />
            <mxPoint x="400" y="250" as="targetPoint" />
          </mxGeometry>
        </mxCell>
        <mxCell id="ZhaH2Ic472sz3L4v5rn1-74" value="" style="endArrow=none;html=1;rounded=0;exitX=1;exitY=0.5;exitDx=0;exitDy=0;" edge="1" parent="1" source="ZhaH2Ic472sz3L4v5rn1-7" target="ZhaH2Ic472sz3L4v5rn1-75">
          <mxGeometry width="50" height="50" relative="1" as="geometry">
            <mxPoint x="350" y="300" as="sourcePoint" />
            <mxPoint x="230" y="310" as="targetPoint" />
          </mxGeometry>
        </mxCell>
        <mxCell id="ZhaH2Ic472sz3L4v5rn1-75" value="" style="rhombus;whiteSpace=wrap;html=1;" vertex="1" parent="1">
          <mxGeometry x="240" y="290" width="40" height="42.5" as="geometry" />
        </mxCell>
        <mxCell id="ZhaH2Ic472sz3L4v5rn1-76" value="" style="endArrow=none;html=1;rounded=0;exitX=1;exitY=0.5;exitDx=0;exitDy=0;" edge="1" parent="1" source="ZhaH2Ic472sz3L4v5rn1-75" target="ZhaH2Ic472sz3L4v5rn1-69">
          <mxGeometry width="50" height="50" relative="1" as="geometry">
            <mxPoint x="350" y="300" as="sourcePoint" />
            <mxPoint x="400" y="250" as="targetPoint" />
          </mxGeometry>
        </mxCell>
        <mxCell id="ZhaH2Ic472sz3L4v5rn1-77" value="Asistencia" style="ellipse;whiteSpace=wrap;html=1;" vertex="1" parent="1">
          <mxGeometry x="170" y="320" width="60" height="30" as="geometry" />
        </mxCell>
        <mxCell id="ZhaH2Ic472sz3L4v5rn1-78" value="&lt;u&gt;Legajo&lt;/u&gt;" style="ellipse;whiteSpace=wrap;html=1;" vertex="1" parent="1">
          <mxGeometry x="175" y="-45" width="70" height="40" as="geometry" />
        </mxCell>
        <mxCell id="ZhaH2Ic472sz3L4v5rn1-79" value="" style="endArrow=none;html=1;rounded=0;exitX=1;exitY=0.75;exitDx=0;exitDy=0;entryX=0;entryY=0.5;entryDx=0;entryDy=0;" edge="1" parent="1" source="ZhaH2Ic472sz3L4v5rn1-7" target="ZhaH2Ic472sz3L4v5rn1-77">
          <mxGeometry width="50" height="50" relative="1" as="geometry">
            <mxPoint x="220" y="370" as="sourcePoint" />
            <mxPoint x="270" y="320" as="targetPoint" />
          </mxGeometry>
        </mxCell>
        <mxCell id="ZhaH2Ic472sz3L4v5rn1-80" value="Se realiza en" style="text;html=1;align=center;verticalAlign=middle;resizable=0;points=[];autosize=1;strokeColor=none;fillColor=none;" vertex="1" parent="1">
          <mxGeometry x="215" y="260" width="90" height="30" as="geometry" />
        </mxCell>
        <mxCell id="ZhaH2Ic472sz3L4v5rn1-81" value="Hable de" style="text;html=1;align=center;verticalAlign=middle;resizable=0;points=[];autosize=1;strokeColor=none;fillColor=none;" vertex="1" parent="1">
          <mxGeometry x="125" y="580" width="70" height="30" as="geometry" />
        </mxCell>
        <mxCell id="ZhaH2Ic472sz3L4v5rn1-84" value="" style="endArrow=none;html=1;rounded=0;entryX=0.5;entryY=0;entryDx=0;entryDy=0;" edge="1" parent="1" target="ZhaH2Ic472sz3L4v5rn1-85">
          <mxGeometry width="50" height="50" relative="1" as="geometry">
            <mxPoint x="137" y="340" as="sourcePoint" />
            <mxPoint x="180" y="370" as="targetPoint" />
          </mxGeometry>
        </mxCell>
        <mxCell id="ZhaH2Ic472sz3L4v5rn1-85" value="" style="rhombus;whiteSpace=wrap;html=1;" vertex="1" parent="1">
          <mxGeometry x="195" y="365" width="45" height="40" as="geometry" />
        </mxCell>
        <mxCell id="ZhaH2Ic472sz3L4v5rn1-87" value="" style="endArrow=none;html=1;rounded=0;exitX=0.5;exitY=1;exitDx=0;exitDy=0;entryX=0;entryY=0.5;entryDx=0;entryDy=0;" edge="1" parent="1" source="ZhaH2Ic472sz3L4v5rn1-85" target="ZhaH2Ic472sz3L4v5rn1-55">
          <mxGeometry width="50" height="50" relative="1" as="geometry">
            <mxPoint x="280" y="380" as="sourcePoint" />
            <mxPoint x="270" y="440" as="targetPoint" />
          </mxGeometry>
        </mxCell>
        <mxCell id="ZhaH2Ic472sz3L4v5rn1-88" value="" style="endArrow=none;html=1;rounded=0;exitX=0.659;exitY=0.892;exitDx=0;exitDy=0;entryX=-0.006;entryY=0.367;entryDx=0;entryDy=0;entryPerimeter=0;exitPerimeter=0;" edge="1" parent="1" source="ZhaH2Ic472sz3L4v5rn1-85" target="ZhaH2Ic472sz3L4v5rn1-55">
          <mxGeometry width="50" height="50" relative="1" as="geometry">
            <mxPoint x="280" y="380" as="sourcePoint" />
            <mxPoint x="330" y="330" as="targetPoint" />
          </mxGeometry>
        </mxCell>
        <mxCell id="ZhaH2Ic472sz3L4v5rn1-90" value="1" style="text;html=1;align=center;verticalAlign=middle;resizable=0;points=[];autosize=1;strokeColor=none;fillColor=none;" vertex="1" parent="1">
          <mxGeometry x="125" y="335" width="30" height="30" as="geometry" />
        </mxCell>
        <mxCell id="ZhaH2Ic472sz3L4v5rn1-91" value="N" style="text;html=1;align=center;verticalAlign=middle;resizable=0;points=[];autosize=1;strokeColor=none;fillColor=none;" vertex="1" parent="1">
          <mxGeometry x="250" y="400" width="30" height="30" as="geometry" />
        </mxCell>
        <mxCell id="ZhaH2Ic472sz3L4v5rn1-93" value="" style="rhombus;whiteSpace=wrap;html=1;" vertex="1" parent="1">
          <mxGeometry x="-25" y="350" width="50" height="40" as="geometry" />
        </mxCell>
        <mxCell id="ZhaH2Ic472sz3L4v5rn1-94" value="" style="endArrow=none;html=1;rounded=0;entryX=0.5;entryY=0;entryDx=0;entryDy=0;exitX=0;exitY=0.5;exitDx=0;exitDy=0;" edge="1" parent="1" source="ZhaH2Ic472sz3L4v5rn1-93" target="ZhaH2Ic472sz3L4v5rn1-14">
          <mxGeometry width="50" height="50" relative="1" as="geometry">
            <mxPoint x="350" y="390" as="sourcePoint" />
            <mxPoint x="400" y="340" as="targetPoint" />
          </mxGeometry>
        </mxCell>
        <mxCell id="ZhaH2Ic472sz3L4v5rn1-95" value="" style="endArrow=none;html=1;rounded=0;exitX=1;exitY=0.5;exitDx=0;exitDy=0;entryX=0;entryY=1;entryDx=0;entryDy=0;" edge="1" parent="1" source="ZhaH2Ic472sz3L4v5rn1-93" target="ZhaH2Ic472sz3L4v5rn1-7">
          <mxGeometry width="50" height="50" relative="1" as="geometry">
            <mxPoint x="350" y="390" as="sourcePoint" />
            <mxPoint x="400" y="340" as="targetPoint" />
          </mxGeometry>
        </mxCell>
        <mxCell id="ZhaH2Ic472sz3L4v5rn1-96" value="id" style="ellipse;whiteSpace=wrap;html=1;" vertex="1" parent="1">
          <mxGeometry x="-220" y="410" width="60" height="40" as="geometry" />
        </mxCell>
        <mxCell id="ZhaH2Ic472sz3L4v5rn1-97" value="Nombre" style="ellipse;whiteSpace=wrap;html=1;direction=south;" vertex="1" parent="1">
          <mxGeometry x="-230" y="460" width="70" height="45" as="geometry" />
        </mxCell>
        <mxCell id="ZhaH2Ic472sz3L4v5rn1-98" value="" style="endArrow=none;html=1;rounded=0;exitX=1;exitY=0.5;exitDx=0;exitDy=0;" edge="1" parent="1" source="ZhaH2Ic472sz3L4v5rn1-96">
          <mxGeometry width="50" height="50" relative="1" as="geometry">
            <mxPoint x="350" y="390" as="sourcePoint" />
            <mxPoint x="-120" y="430" as="targetPoint" />
          </mxGeometry>
        </mxCell>
        <mxCell id="ZhaH2Ic472sz3L4v5rn1-100" value="" style="endArrow=none;html=1;rounded=0;exitX=0.5;exitY=0;exitDx=0;exitDy=0;entryX=0;entryY=0.5;entryDx=0;entryDy=0;" edge="1" parent="1" source="ZhaH2Ic472sz3L4v5rn1-97" target="ZhaH2Ic472sz3L4v5rn1-14">
          <mxGeometry width="50" height="50" relative="1" as="geometry">
            <mxPoint x="350" y="390" as="sourcePoint" />
            <mxPoint x="400" y="340" as="targetPoint" />
          </mxGeometry>
        </mxCell>
        <mxCell id="ZhaH2Ic472sz3L4v5rn1-102" value="Id" style="ellipse;whiteSpace=wrap;html=1;" vertex="1" parent="1">
          <mxGeometry x="510" y="280" width="70" height="40" as="geometry" />
        </mxCell>
        <mxCell id="ZhaH2Ic472sz3L4v5rn1-103" value="Nombre" style="ellipse;whiteSpace=wrap;html=1;" vertex="1" parent="1">
          <mxGeometry x="510" y="340" width="70" height="40" as="geometry" />
        </mxCell>
        <mxCell id="ZhaH2Ic472sz3L4v5rn1-104" value="" style="endArrow=none;html=1;rounded=0;entryX=0;entryY=0.5;entryDx=0;entryDy=0;exitX=1;exitY=0.5;exitDx=0;exitDy=0;" edge="1" parent="1" source="ZhaH2Ic472sz3L4v5rn1-69" target="ZhaH2Ic472sz3L4v5rn1-102">
          <mxGeometry width="50" height="50" relative="1" as="geometry">
            <mxPoint x="360" y="390" as="sourcePoint" />
            <mxPoint x="410" y="340" as="targetPoint" />
          </mxGeometry>
        </mxCell>
        <mxCell id="ZhaH2Ic472sz3L4v5rn1-105" value="" style="endArrow=none;html=1;rounded=0;entryX=0;entryY=0.5;entryDx=0;entryDy=0;exitX=1;exitY=0.5;exitDx=0;exitDy=0;" edge="1" parent="1" source="ZhaH2Ic472sz3L4v5rn1-69" target="ZhaH2Ic472sz3L4v5rn1-103">
          <mxGeometry width="50" height="50" relative="1" as="geometry">
            <mxPoint x="360" y="390" as="sourcePoint" />
            <mxPoint x="410" y="340" as="targetPoint" />
          </mxGeometry>
        </mxCell>
        <mxCell id="ZhaH2Ic472sz3L4v5rn1-106" value="Numero" style="ellipse;whiteSpace=wrap;html=1;" vertex="1" parent="1">
          <mxGeometry x="440" y="430" width="70" height="40" as="geometry" />
        </mxCell>
        <mxCell id="ZhaH2Ic472sz3L4v5rn1-107" value="" style="endArrow=none;html=1;rounded=0;entryX=0;entryY=0.5;entryDx=0;entryDy=0;exitX=1;exitY=0.5;exitDx=0;exitDy=0;" edge="1" parent="1" source="ZhaH2Ic472sz3L4v5rn1-55" target="ZhaH2Ic472sz3L4v5rn1-106">
          <mxGeometry width="50" height="50" relative="1" as="geometry">
            <mxPoint x="360" y="390" as="sourcePoint" />
            <mxPoint x="410" y="340" as="targetPoint" />
          </mxGeometry>
        </mxCell>
        <mxCell id="ZhaH2Ic472sz3L4v5rn1-108" value="Nombre" style="ellipse;whiteSpace=wrap;html=1;" vertex="1" parent="1">
          <mxGeometry x="170" y="525" width="70" height="40" as="geometry" />
        </mxCell>
        <mxCell id="ZhaH2Ic472sz3L4v5rn1-109" value="Apellido" style="ellipse;whiteSpace=wrap;html=1;" vertex="1" parent="1">
          <mxGeometry x="170" y="470" width="70" height="40" as="geometry" />
        </mxCell>
        <mxCell id="ZhaH2Ic472sz3L4v5rn1-110" value="Id" style="ellipse;whiteSpace=wrap;html=1;" vertex="1" parent="1">
          <mxGeometry x="-45" y="480" width="70" height="40" as="geometry" />
        </mxCell>
        <mxCell id="ZhaH2Ic472sz3L4v5rn1-111" value="" style="endArrow=none;html=1;rounded=0;exitX=1;exitY=0.5;exitDx=0;exitDy=0;" edge="1" parent="1" source="ZhaH2Ic472sz3L4v5rn1-110">
          <mxGeometry width="50" height="50" relative="1" as="geometry">
            <mxPoint x="360" y="390" as="sourcePoint" />
            <mxPoint x="50" y="500" as="targetPoint" />
          </mxGeometry>
        </mxCell>
        <mxCell id="ZhaH2Ic472sz3L4v5rn1-112" value="" style="endArrow=none;html=1;rounded=0;exitX=1.004;exitY=0.383;exitDx=0;exitDy=0;exitPerimeter=0;entryX=0;entryY=0.5;entryDx=0;entryDy=0;" edge="1" parent="1" source="ZhaH2Ic472sz3L4v5rn1-49" target="ZhaH2Ic472sz3L4v5rn1-109">
          <mxGeometry width="50" height="50" relative="1" as="geometry">
            <mxPoint x="360" y="390" as="sourcePoint" />
            <mxPoint x="180" y="500" as="targetPoint" />
          </mxGeometry>
        </mxCell>
        <mxCell id="ZhaH2Ic472sz3L4v5rn1-113" value="" style="endArrow=none;html=1;rounded=0;exitX=1;exitY=0.75;exitDx=0;exitDy=0;entryX=0;entryY=0.5;entryDx=0;entryDy=0;" edge="1" parent="1" source="ZhaH2Ic472sz3L4v5rn1-49" target="ZhaH2Ic472sz3L4v5rn1-108">
          <mxGeometry width="50" height="50" relative="1" as="geometry">
            <mxPoint x="410" y="520" as="sourcePoint" />
            <mxPoint x="460" y="470" as="targetPoint" />
          </mxGeometry>
        </mxCell>
        <mxCell id="ZhaH2Ic472sz3L4v5rn1-114" value="" style="endArrow=none;html=1;rounded=0;exitX=1;exitY=0.5;exitDx=0;exitDy=0;" edge="1" parent="1" source="ZhaH2Ic472sz3L4v5rn1-12" target="ZhaH2Ic472sz3L4v5rn1-115">
          <mxGeometry width="50" height="50" relative="1" as="geometry">
            <mxPoint x="490" y="500" as="sourcePoint" />
            <mxPoint x="540" y="450" as="targetPoint" />
          </mxGeometry>
        </mxCell>
        <mxCell id="ZhaH2Ic472sz3L4v5rn1-115" value="Id" style="ellipse;whiteSpace=wrap;html=1;" vertex="1" parent="1">
          <mxGeometry x="187.5" y="675" width="60" height="30" as="geometry" />
        </mxCell>
        <mxCell id="ZhaH2Ic472sz3L4v5rn1-116" value="Area" style="ellipse;whiteSpace=wrap;html=1;" vertex="1" parent="1">
          <mxGeometry x="190" y="720" width="60" height="30" as="geometry" />
        </mxCell>
        <mxCell id="ZhaH2Ic472sz3L4v5rn1-117" value="" style="endArrow=none;html=1;rounded=0;exitX=1;exitY=0.5;exitDx=0;exitDy=0;entryX=0;entryY=0.5;entryDx=0;entryDy=0;" edge="1" parent="1" source="ZhaH2Ic472sz3L4v5rn1-12" target="ZhaH2Ic472sz3L4v5rn1-116">
          <mxGeometry width="50" height="50" relative="1" as="geometry">
            <mxPoint x="490" y="500" as="sourcePoint" />
            <mxPoint x="540" y="450" as="targetPoint" />
          </mxGeometry>
        </mxCell>
        <mxCell id="ZhaH2Ic472sz3L4v5rn1-118" value="" style="endArrow=none;html=1;rounded=0;exitX=1;exitY=0.5;exitDx=0;exitDy=0;" edge="1" parent="1" source="ZhaH2Ic472sz3L4v5rn1-10" target="ZhaH2Ic472sz3L4v5rn1-119">
          <mxGeometry width="50" height="50" relative="1" as="geometry">
            <mxPoint x="490" y="150" as="sourcePoint" />
            <mxPoint x="540" y="240" as="targetPoint" />
          </mxGeometry>
        </mxCell>
        <mxCell id="ZhaH2Ic472sz3L4v5rn1-119" value="Id" style="ellipse;whiteSpace=wrap;html=1;" vertex="1" parent="1">
          <mxGeometry x="520" y="225" width="60" height="30" as="geometry" />
        </mxCell>
        <mxCell id="ZhaH2Ic472sz3L4v5rn1-120" value="" style="endArrow=none;html=1;rounded=0;exitX=1;exitY=0.5;exitDx=0;exitDy=0;" edge="1" parent="1" source="ZhaH2Ic472sz3L4v5rn1-10" target="ZhaH2Ic472sz3L4v5rn1-121">
          <mxGeometry width="50" height="50" relative="1" as="geometry">
            <mxPoint x="490" y="150" as="sourcePoint" />
            <mxPoint x="540" y="100" as="targetPoint" />
          </mxGeometry>
        </mxCell>
        <mxCell id="ZhaH2Ic472sz3L4v5rn1-121" value="Precio" style="ellipse;whiteSpace=wrap;html=1;" vertex="1" parent="1">
          <mxGeometry x="520" y="180" width="60" height="30" as="geometry" />
        </mxCell>
        <mxCell id="ZhaH2Ic472sz3L4v5rn1-122" value="Nombre" style="ellipse;whiteSpace=wrap;html=1;" vertex="1" parent="1">
          <mxGeometry x="341.5" y="-50" width="70" height="45" as="geometry" />
        </mxCell>
        <mxCell id="ZhaH2Ic472sz3L4v5rn1-123" value="&lt;u&gt;Legajo&lt;/u&gt;" style="ellipse;whiteSpace=wrap;html=1;" vertex="1" parent="1">
          <mxGeometry x="416.5" y="-47.5" width="70" height="40" as="geometry" />
        </mxCell>
        <mxCell id="ZhaH2Ic472sz3L4v5rn1-124" value="" style="endArrow=none;html=1;rounded=0;exitX=0.5;exitY=1;exitDx=0;exitDy=0;entryX=0.5;entryY=0;entryDx=0;entryDy=0;" edge="1" parent="1" source="ZhaH2Ic472sz3L4v5rn1-122" target="ZhaH2Ic472sz3L4v5rn1-2">
          <mxGeometry width="50" height="50" relative="1" as="geometry">
            <mxPoint x="490" y="150" as="sourcePoint" />
            <mxPoint x="540" y="100" as="targetPoint" />
          </mxGeometry>
        </mxCell>
        <mxCell id="ZhaH2Ic472sz3L4v5rn1-125" value="" style="endArrow=none;html=1;rounded=0;exitX=0.5;exitY=0;exitDx=0;exitDy=0;entryX=0.5;entryY=1;entryDx=0;entryDy=0;" edge="1" parent="1" source="ZhaH2Ic472sz3L4v5rn1-2" target="ZhaH2Ic472sz3L4v5rn1-123">
          <mxGeometry width="50" height="50" relative="1" as="geometry">
            <mxPoint x="490" y="150" as="sourcePoint" />
            <mxPoint x="540" y="100" as="targetPoint" />
          </mxGeometry>
        </mxCell>
        <mxCell id="ZhaH2Ic472sz3L4v5rn1-126" value="Direccion" style="ellipse;whiteSpace=wrap;html=1;dashed=1;" vertex="1" parent="1">
          <mxGeometry x="590" y="-65" width="70" height="40" as="geometry" />
        </mxCell>
        <mxCell id="ZhaH2Ic472sz3L4v5rn1-127" value="Nombre" style="ellipse;whiteSpace=wrap;html=1;" vertex="1" parent="1">
          <mxGeometry x="690" y="-65" width="70" height="45" as="geometry" />
        </mxCell>
        <mxCell id="ZhaH2Ic472sz3L4v5rn1-128" value="" style="endArrow=none;html=1;rounded=0;entryX=0.5;entryY=1;entryDx=0;entryDy=0;exitX=0.381;exitY=-0.023;exitDx=0;exitDy=0;exitPerimeter=0;" edge="1" parent="1" source="ZhaH2Ic472sz3L4v5rn1-13" target="ZhaH2Ic472sz3L4v5rn1-126">
          <mxGeometry width="50" height="50" relative="1" as="geometry">
            <mxPoint x="490" y="150" as="sourcePoint" />
            <mxPoint x="540" y="100" as="targetPoint" />
          </mxGeometry>
        </mxCell>
        <mxCell id="ZhaH2Ic472sz3L4v5rn1-129" value="" style="endArrow=none;html=1;rounded=0;entryX=0.5;entryY=1;entryDx=0;entryDy=0;exitX=0.5;exitY=0;exitDx=0;exitDy=0;" edge="1" parent="1" source="ZhaH2Ic472sz3L4v5rn1-13" target="ZhaH2Ic472sz3L4v5rn1-127">
          <mxGeometry width="50" height="50" relative="1" as="geometry">
            <mxPoint x="490" y="150" as="sourcePoint" />
            <mxPoint x="540" y="100" as="targetPoint" />
          </mxGeometry>
        </mxCell>
        <mxCell id="ZhaH2Ic472sz3L4v5rn1-130" value="" style="endArrow=none;html=1;rounded=0;entryX=1;entryY=0.5;entryDx=0;entryDy=0;exitX=0;exitY=0.5;exitDx=0;exitDy=0;" edge="1" parent="1" source="ZhaH2Ic472sz3L4v5rn1-131" target="ZhaH2Ic472sz3L4v5rn1-13">
          <mxGeometry width="50" height="50" relative="1" as="geometry">
            <mxPoint x="260" y="150" as="sourcePoint" />
            <mxPoint x="310" y="100" as="targetPoint" />
          </mxGeometry>
        </mxCell>
        <mxCell id="ZhaH2Ic472sz3L4v5rn1-131" value="Id" style="ellipse;whiteSpace=wrap;html=1;" vertex="1" parent="1">
          <mxGeometry x="770" y="23" width="70" height="47" as="geometry" />
        </mxCell>
        <mxCell id="ZhaH2Ic472sz3L4v5rn1-133" value="" style="endArrow=none;html=1;rounded=0;exitX=0;exitY=0.5;exitDx=0;exitDy=0;entryX=1;entryY=1;entryDx=0;entryDy=0;" edge="1" parent="1" source="ZhaH2Ic472sz3L4v5rn1-7" target="ZhaH2Ic472sz3L4v5rn1-134">
          <mxGeometry width="50" height="50" relative="1" as="geometry">
            <mxPoint x="260" y="270" as="sourcePoint" />
            <mxPoint x="20" y="270" as="targetPoint" />
          </mxGeometry>
        </mxCell>
        <mxCell id="ZhaH2Ic472sz3L4v5rn1-134" value="Fecha" style="ellipse;whiteSpace=wrap;html=1;" vertex="1" parent="1">
          <mxGeometry x="-25" y="220" width="50" height="30" as="geometry" />
        </mxCell>
        <mxCell id="ZhaH2Ic472sz3L4v5rn1-136" value="" style="endArrow=none;html=1;rounded=0;" edge="1" parent="1" source="ZhaH2Ic472sz3L4v5rn1-7" target="ZhaH2Ic472sz3L4v5rn1-137">
          <mxGeometry width="50" height="50" relative="1" as="geometry">
            <mxPoint x="260" y="270" as="sourcePoint" />
            <mxPoint x="70" y="260" as="targetPoint" />
          </mxGeometry>
        </mxCell>
        <mxCell id="ZhaH2Ic472sz3L4v5rn1-137" value="Nombre" style="ellipse;whiteSpace=wrap;html=1;" vertex="1" parent="1">
          <mxGeometry x="30" y="220" width="50" height="30" as="geometry" />
        </mxCell>
        <mxCell id="ZhaH2Ic472sz3L4v5rn1-138" value="" style="endArrow=none;html=1;rounded=0;exitX=0;exitY=0.5;exitDx=0;exitDy=0;" edge="1" parent="1" source="ZhaH2Ic472sz3L4v5rn1-7" target="ZhaH2Ic472sz3L4v5rn1-139">
          <mxGeometry width="50" height="50" relative="1" as="geometry">
            <mxPoint x="260" y="270" as="sourcePoint" />
            <mxPoint x="310" y="220" as="targetPoint" />
          </mxGeometry>
        </mxCell>
        <mxCell id="ZhaH2Ic472sz3L4v5rn1-139" value="Id" style="ellipse;whiteSpace=wrap;html=1;" vertex="1" parent="1">
          <mxGeometry x="-37.5" y="260" width="55" height="30" as="geometry" />
        </mxCell>
        <mxCell id="ZhaH2Ic472sz3L4v5rn1-140" value="1" style="text;html=1;align=center;verticalAlign=middle;resizable=0;points=[];autosize=1;strokeColor=none;fillColor=none;" vertex="1" parent="1">
          <mxGeometry x="337.5" y="285" width="30" height="30" as="geometry" />
        </mxCell>
        <mxCell id="ZhaH2Ic472sz3L4v5rn1-141" value="N" style="text;html=1;align=center;verticalAlign=middle;resizable=0;points=[];autosize=1;strokeColor=none;fillColor=none;" vertex="1" parent="1">
          <mxGeometry x="157.5" y="285" width="30" height="30" as="geometry" />
        </mxCell>
        <mxCell id="ZhaH2Ic472sz3L4v5rn1-142" value="N" style="text;html=1;align=center;verticalAlign=middle;resizable=0;points=[];autosize=1;strokeColor=none;fillColor=none;" vertex="1" parent="1">
          <mxGeometry x="10" y="320" width="30" height="30" as="geometry" />
        </mxCell>
        <mxCell id="ZhaH2Ic472sz3L4v5rn1-143" value="N" style="text;html=1;align=center;verticalAlign=middle;resizable=0;points=[];autosize=1;strokeColor=none;fillColor=none;" vertex="1" parent="1">
          <mxGeometry x="-80" y="375" width="30" height="30" as="geometry" />
        </mxCell>
        <mxCell id="ZhaH2Ic472sz3L4v5rn1-145" value="Le interesa" style="text;html=1;align=center;verticalAlign=middle;resizable=0;points=[];autosize=1;strokeColor=none;fillColor=none;" vertex="1" parent="1">
          <mxGeometry x="-90" y="332.5" width="80" height="30" as="geometry" />
        </mxCell>
      </root>
    </mxGraphModel>
  </diagram>
</mxfile>
